
        <svg xmlns="http://www.w3.org/2000/svg" xmlns:xlink="http://www.w3.org/1999/xlink" version="1.1" width="3217.0654433007753" height="940.9786967088603" viewBox="0 0 3217.0654433007753 940.9786967088603">
			
			<g transform="scale(10.853272165038756) translate(10, 10)">
				<defs id="SvgjsDefs2174"/><g id="SvgjsG2175" featureKey="sloganFeature-0" transform="matrix(1.44553056452585,0,0,1.44553056452585,-2.0815640956311463,37.268996823971854)" fill="#000"><path d="M1.6 14.559999999999999 l0 -2.72 c0 -2.24 -0.04 -3.78 -0.16 -5.54 c1.18 0.02 2.38 0.1 3.56 0.1 c1.96 0 3.64 -0.04 4.18 -0.1 c-0.04 0.24 -0.08 0.48 -0.08 0.84 c0 0.42 0.04 0.6 0.08 0.9 c-1.52 -0.1 -3.92 -0.24 -4.52 -0.24 c-0.1 1.46 -0.1 2.9 -0.1 4.36 c1.74 -0.04 3.02 -0.08 4.54 -0.16 c-0.08 0.46 -0.1 0.64 -0.1 0.9 c0 0.22 0.04 0.4 0.1 0.82 c-1.52 -0.12 -3.02 -0.18 -4.54 -0.18 c0 0.84 -0.02 1.7 -0.02 2.56 c0 0.84 0.02 1.7 0.06 2.5 c1.5 0 3.04 -0.08 4.58 -0.26 c-0.04 0.28 -0.08 0.48 -0.08 0.9 s0.04 0.62 0.08 0.86 c-0.72 -0.02 -1.66 -0.1 -3.5 -0.1 c-3.26 0 -3.8 0.06 -4.24 0.1 c0.12 -1.76 0.16 -3.3 0.16 -5.54 z M17.54 16.34 c1.38 -3.34 2.74 -6.94 3.78 -10.04 c0.28 0.06 0.58 0.1 0.88 0.1 s0.6 -0.04 0.88 -0.1 c-1.32 3.14 -3.92 9.22 -5.48 13.8 c-0.3 -0.04 -0.58 -0.1 -0.88 -0.1 s-0.6 0.06 -0.88 0.1 c-1.24 -3.42 -4.12 -10.74 -5.42 -13.8 c0.62 0.06 1.22 0.1 1.8 0.1 s1.18 -0.04 1.76 -0.1 c0.9 2.98 2.34 6.7 3.56 10.04 z M24.94 14.559999999999999 l0 -2.72 c0 -2.24 -0.04 -3.78 -0.16 -5.54 c1.18 0.02 2.38 0.1 3.56 0.1 c1.96 0 3.64 -0.04 4.18 -0.1 c-0.04 0.24 -0.08 0.48 -0.08 0.84 c0 0.42 0.04 0.6 0.08 0.9 c-1.52 -0.1 -3.92 -0.24 -4.52 -0.24 c-0.1 1.46 -0.1 2.9 -0.1 4.36 c1.74 -0.04 3.02 -0.08 4.54 -0.16 c-0.08 0.46 -0.1 0.64 -0.1 0.9 c0 0.22 0.04 0.4 0.1 0.82 c-1.52 -0.12 -3.02 -0.18 -4.54 -0.18 c0 0.84 -0.02 1.7 -0.02 2.56 c0 0.84 0.02 1.7 0.06 2.5 c1.5 0 3.04 -0.08 4.58 -0.26 c-0.04 0.28 -0.08 0.48 -0.08 0.9 s0.04 0.62 0.08 0.86 c-0.72 -0.02 -1.66 -0.1 -3.5 -0.1 c-3.26 0 -3.8 0.06 -4.24 0.1 c0.12 -1.76 0.16 -3.3 0.16 -5.54 z M41.84 20.1 l-3.58 -6.36 l-0.18 0 l0 0.82 c0 2.24 0.04 3.78 0.16 5.54 c-0.44 -0.04 -0.98 -0.1 -1.64 -0.1 s-1.2 0.06 -1.64 0.1 c0.12 -1.76 0.16 -3.3 0.16 -5.54 l0 -2.72 c0 -2.24 -0.04 -3.78 -0.16 -5.54 c0.44 0.04 0.98 0.1 1.64 0.1 c0.72 0 1.58 -0.1 2.94 -0.1 c2.02 0 2.76 0.18 3.46 0.68 c0.8 0.58 1.3 1.46 1.3 2.64 c0 1.94 -1.12 3.18 -3.1 3.68 c1.28 2.26 2.8 4.54 4.26 6.8 c-0.6 -0.04 -1.2 -0.1 -1.8 -0.1 s-1.22 0.06 -1.82 0.1 z M41.24 10.06 c0 -2.36 -0.92 -2.62 -3.1 -2.62 c-0.04 1.82 -0.06 3.62 -0.06 5.44 c0.16 0.02 0.3 0.04 0.44 0.04 c1.76 0 2.72 -0.98 2.72 -2.86 z M52.58 12.3 l0.04 0 c1.08 -1.52 2.14 -4.04 3.02 -6 c0.3 0.04 0.6 0.1 0.92 0.1 s0.62 -0.06 0.96 -0.1 c-0.88 1.5 -2.9 5.14 -4.18 7.66 c0 0.64 -0.04 1.3 -0.04 1.96 c0 1.32 0.02 2.68 0.2 4.18 c-0.56 -0.04 -1.14 -0.1 -1.7 -0.1 s-1.14 0.06 -1.7 0.1 c0.06 -1.28 0.24 -2.62 0.24 -3.86 c0 -0.62 -0.02 -1.24 -0.04 -1.86 c-1.38 -2.66 -3.66 -6.94 -4.28 -8.08 c0.6 0.04 1.2 0.1 1.8 0.1 s1.18 -0.06 1.78 -0.1 c0.92 1.98 2.42 5.08 2.98 6 z M59.56 14.559999999999999 l0 -2.72 c0 -2.24 -0.04 -3.78 -0.16 -5.54 c0.44 0.04 0.98 0.1 1.64 0.1 c0.88 0 1.86 -0.1 3.62 -0.1 c4.56 0 7.7 1.46 7.7 6.5 c0 4.4 -3.16 7.3 -6.92 7.3 c-2 0 -3.36 -0.1 -4.4 -0.1 c-0.66 0 -1.2 0.06 -1.64 0.1 c0.12 -1.76 0.16 -3.3 0.16 -5.54 z M62.52 11.44 l0 3.56 c0 1.08 0 3.52 0.02 3.9 c0.4 0.02 0.94 0.06 1.76 0.06 c3 0 4.9 -2.04 4.9 -6.2 c0 -3.28 -1.82 -5.32 -4.58 -5.32 c-0.96 0 -1.46 0.04 -2.08 0.1 c-0.02 0.38 -0.02 2.82 -0.02 3.9 z M80.84 6.199999999999999 c1.7 4.56 4.04 10.64 5.56 13.9 c-0.64 -0.04 -1.2 -0.1 -1.76 -0.1 s-1.14 0.06 -1.7 0.1 c-0.42 -1.36 -0.88 -2.74 -1.38 -4.1 c-0.86 -0.02 -1.7 -0.04 -2.56 -0.04 c-0.7 0 -1.38 0.02 -2.08 0.04 c-0.54 1.36 -0.98 2.72 -1.36 4.1 c-0.32 -0.04 -0.62 -0.1 -0.94 -0.1 s-0.62 0.06 -1 0.1 c0.98 -2.22 3.98 -9.34 5.7 -13.9 c0.26 0.04 0.5 0.1 0.76 0.1 s0.5 -0.06 0.76 -0.1 z M77.44 14.82 l3.66 0 c-0.58 -1.62 -1.14 -3.2 -1.78 -4.76 c-0.68 1.56 -1.3 3.14 -1.88 4.76 z M93.7 12.3 l0.04 0 c1.08 -1.52 2.14 -4.04 3.02 -6 c0.3 0.04 0.6 0.1 0.92 0.1 s0.62 -0.06 0.96 -0.1 c-0.88 1.5 -2.9 5.14 -4.18 7.66 c0 0.64 -0.04 1.3 -0.04 1.96 c0 1.32 0.02 2.68 0.2 4.18 c-0.56 -0.04 -1.14 -0.1 -1.7 -0.1 s-1.14 0.06 -1.7 0.1 c0.06 -1.28 0.24 -2.62 0.24 -3.86 c0 -0.62 -0.02 -1.24 -0.04 -1.86 c-1.38 -2.66 -3.66 -6.94 -4.28 -8.08 c0.6 0.04 1.2 0.1 1.8 0.1 s1.18 -0.06 1.78 -0.1 c0.92 1.98 2.42 5.08 2.98 6 z M106.42 10.28 c0 -1.8 -0.08 -3.02 -0.1 -3.98 c0.3 0.06 0.6 0.1 0.9 0.1 s0.6 -0.04 0.9 -0.1 c2.88 3.18 5.74 6.34 8.68 9.52 c0 -3.18 0 -8.62 -0.14 -9.52 c0.3 0.06 0.6 0.1 0.9 0.1 s0.6 -0.04 0.9 -0.1 c-0.32 5.82 -0.32 8.48 -0.32 13.8 c-0.28 -0.06 -0.54 -0.1 -0.82 -0.1 s-0.54 0.04 -0.78 0.1 c-2.74 -3.24 -5.66 -6.48 -8.74 -9.72 c-0.04 1.5 -0.04 3.16 -0.04 4.66 c0 3.2 0.06 4.32 0.12 5.06 c-0.32 -0.06 -0.64 -0.1 -0.94 -0.1 s-0.62 0.04 -0.92 0.1 c0.1 -0.58 0.4 -5.74 0.4 -9.82 z M121.62 14.559999999999999 l0 -2.72 c0 -2.24 -0.04 -3.78 -0.16 -5.54 c1.18 0.02 2.38 0.1 3.56 0.1 c1.96 0 3.64 -0.04 4.18 -0.1 c-0.04 0.24 -0.08 0.48 -0.08 0.84 c0 0.42 0.04 0.6 0.08 0.9 c-1.52 -0.1 -3.92 -0.24 -4.52 -0.24 c-0.1 1.46 -0.1 2.9 -0.1 4.36 c1.74 -0.04 3.02 -0.08 4.54 -0.16 c-0.08 0.46 -0.1 0.64 -0.1 0.9 c0 0.22 0.04 0.4 0.1 0.82 c-1.52 -0.12 -3.02 -0.18 -4.54 -0.18 c0 0.84 -0.02 1.7 -0.02 2.56 c0 0.84 0.02 1.7 0.06 2.5 c1.5 0 3.04 -0.08 4.58 -0.26 c-0.04 0.28 -0.08 0.48 -0.08 0.9 s0.04 0.62 0.08 0.86 c-0.72 -0.02 -1.66 -0.1 -3.5 -0.1 c-3.26 0 -3.8 0.06 -4.24 0.1 c0.12 -1.76 0.16 -3.3 0.16 -5.54 z M131.62 14.559999999999999 l0 -2.72 c0 -2.24 -0.04 -3.78 -0.16 -5.54 c1.18 0.02 2.38 0.1 3.56 0.1 c1.96 0 3.64 -0.04 4.18 -0.1 c-0.04 0.24 -0.08 0.48 -0.08 0.84 c0 0.42 0.04 0.6 0.08 0.9 c-1.52 -0.1 -3.92 -0.24 -4.52 -0.24 c-0.1 1.46 -0.1 2.9 -0.1 4.36 c1.74 -0.04 3.02 -0.08 4.54 -0.16 c-0.08 0.46 -0.1 0.64 -0.1 0.9 c0 0.22 0.04 0.4 0.1 0.82 c-1.52 -0.12 -3.02 -0.18 -4.54 -0.18 c0 0.84 -0.02 1.7 -0.02 2.56 c0 0.84 0.02 1.7 0.06 2.5 c1.5 0 3.04 -0.08 4.58 -0.26 c-0.04 0.28 -0.08 0.48 -0.08 0.9 s0.04 0.62 0.08 0.86 c-0.72 -0.02 -1.66 -0.1 -3.5 -0.1 c-3.26 0 -3.8 0.06 -4.24 0.1 c0.12 -1.76 0.16 -3.3 0.16 -5.54 z M141.8 14.559999999999999 l0 -2.72 c0 -2.24 -0.04 -3.78 -0.16 -5.54 c0.44 0.04 0.98 0.1 1.64 0.1 c0.88 0 1.86 -0.1 3.62 -0.1 c4.56 0 7.7 1.46 7.7 6.5 c0 4.4 -3.16 7.3 -6.92 7.3 c-2 0 -3.36 -0.1 -4.4 -0.1 c-0.66 0 -1.2 0.06 -1.64 0.1 c0.12 -1.76 0.16 -3.3 0.16 -5.54 z M144.76000000000002 11.44 l0 3.56 c0 1.08 0 3.52 0.02 3.9 c0.4 0.02 0.94 0.06 1.76 0.06 c3 0 4.9 -2.04 4.9 -6.2 c0 -3.28 -1.82 -5.32 -4.58 -5.32 c-0.96 0 -1.46 0.04 -2.08 0.1 c-0.02 0.38 -0.02 2.82 -0.02 3.9 z M174.62 9.28 l-0.28 0 c-0.84 -1.2 -2.12 -2 -3.94 -2 c-2.48 0 -5.04 2.06 -5.04 6.26 c0 3.18 1.78 5.58 4.86 5.58 c0.68 0 1.86 -0.14 2.18 -0.36 c0.06 -0.32 0.06 -0.82 0.06 -1.4 c0 -2.16 -0.12 -3.06 -0.14 -3.44 c0.26 0.04 0.66 0.1 1.48 0.1 c0.96 0 1.36 -0.06 1.62 -0.1 c-0.1 0.42 -0.16 2.08 -0.16 3.36 c0 0.84 0.02 1.9 0.06 2.2 c-1.74 0.5 -3.58 0.88 -5.34 0.88 c-4.6 0 -7.9 -2.62 -7.9 -6.7 c0 -5.08 3.58 -7.62 8.28 -7.62 c2.02 0 3.38 0.44 4.82 1.2 c-0.22 0.68 -0.44 1.36 -0.56 2.04 z M177.4 13.2 c0 -3.94 3.04 -7.16 7.68 -7.16 c4.24 0 7.58 2.32 7.58 7.14 c0 3.96 -3.18 7.18 -7.64 7.18 c-4.22 0 -7.62 -2.16 -7.62 -7.16 z M189.38000000000002 12.76 c0 -3.46 -1.78 -5.58 -4.36 -5.58 c-2.74 0 -4.34 2.76 -4.34 6.2 c0 4.26 1.96 5.74 4.2 5.74 c2.4 0 4.5 -2 4.5 -6.36 z"/></g><g id="SvgjsG2176" featureKey="nameLeftFeature-0" transform="matrix(1.0975608734911595,0,0,1.0975608734911595,48.969269476237464,-8.341462010503443)" fill="#000"><path d="M1.6 23.16 c1.96 -11.16 3 -15.56 9 -15.56 s5.44 4.4 3.48 15.56 c-2.24 12.8 -3.28 17.24 -9.28 17.24 s-5.44 -4.44 -3.2 -17.24 z M5.52 36.4 c2.24 0 2.52 -1.68 4.56 -13.24 c1.84 -10.4 2.2 -12.36 -0.04 -12.36 s-2.6 1.96 -4.44 12.36 c-2.04 11.56 -2.32 13.24 -0.08 13.24 z M16.72 40 l2.84 -32 l4.2 0 l-3.04 24.08 l0.4 0 l6.64 -24.08 l3.4 0 l-1.84 24.08 l0.4 0 l5.44 -24.08 l4.2 0 l-8.44 32 l-4.8 0 l0.68 -16.72 l-5.28 16.72 l-4.8 0 z M38.919999999999995 40 l2.84 -32 l4.2 0 l-3.04 24.08 l0.4 0 l6.64 -24.08 l3.4 0 l-1.84 24.08 l0.4 0 l5.44 -24.08 l4.2 0 l-8.44 32 l-4.8 0 l0.68 -16.72 l-5.28 16.72 l-4.8 0 z M61.519999999999996 26.4 l0.56 -3.2 l8 0 l-0.56 3.2 l-8 0 z M71.12 40 l5.64 -32 l3.6 0 l0.68 20 l0.4 0 l7.72 -20 l3.6 0 l-5.64 32 l-4 0 l2.8 -16 l-5.64 16 l-2.4 0 l0.04 -16 l-2.8 16 l-4 0 z"/></g><g id="SvgjsG2177" featureKey="inlineSymbolFeature-0" transform="matrix(0.4619085805934242,0,0,0.4619085805934242,153.6904570970329,-5.095429029671211)" fill="#000"><path xmlns="http://www.w3.org/2000/svg" style="text-indent:0;text-transform:none;direction:ltr;block-progression:tb;baseline-shift:baseline;color:;enable-background:accumulate;" d="M 50 11.03125 L 48.375 13.84375 L 44.65625 20.3125 L 44.125 21.25 L 44.65625 22.1875 L 70.40625 66.78125 L 46.75 66.78125 L 45.65625 66.78125 L 45.125 67.71875 L 41.40625 74.21875 L 39.78125 77 L 43 77 L 84.875 77.03125 L 88.09375 77 L 86.46875 74.1875 L 51.625 13.84375 L 50 11.03125 z M 43.09375 23 L 41.46875 25.8125 L 6.625 86.1875 L 5 88.96875 L 8.25 88.96875 L 15.71875 88.96875 L 16.8125 88.96875 L 17.34375 88.03125 L 43.09375 43.4375 L 54.9375 63.90625 L 55.4375 64.84375 L 56.53125 64.84375 L 64 64.84375 L 67.25 64.84375 L 65.625 62.0625 L 44.71875 25.8125 L 43.09375 23 z M 42.96875 47.125 L 41.375 49.9375 L 20.4375 86.15625 L 18.8125 88.96875 L 22.0625 88.96875 L 91.78125 88.96875 L 95 88.96875 L 93.375 86.15625 L 89.65625 79.6875 L 89.09375 78.75 L 88.03125 78.75 L 36.53125 78.75 L 48.34375 58.28125 L 48.875 57.34375 L 48.34375 56.40625 L 44.59375 49.9375 L 42.96875 47.125 z " fill-opacity="1" fill-rule="nonzero" stroke="none" marker="none" visibility="visible" display="inline" overflow="visible"/></g><g id="SvgjsG2178" featureKey="nameRightFeature-0" transform="matrix(1.125,0,0,1.125,204.08000004291534,-9)" fill="#000"><path d="M-0.96 40 l5.64 -32 l4 0 l-4.92 28 l5.2 0 l-0.72 4 l-9.2 0 z M10.64 40 l5.64 -32 l4 0 l-4.92 28 l5.2 0 l-0.72 4 l-9.2 0 z"/></g>
			</g>
		</svg>
	